<mxfile host="app.diagrams.net" modified="2020-10-14T09:34:33.625Z" agent="5.0 (Macintosh; Intel Mac OS X 10_15_7) AppleWebKit/605.1.15 (KHTML, like Gecko) Version/14.0 Safari/605.1.15" etag="kmsMYzzLQxWEokU3oifO" version="13.7.9" type="github">
  <diagram id="MDbWMlTj6H6kY_VtK0KY" name="Страница 1">
    <mxGraphModel dx="1186" dy="662" grid="1" gridSize="10" guides="1" tooltips="1" connect="1" arrows="1" fold="1" page="1" pageScale="1" pageWidth="827" pageHeight="1169" background="#F1FAEE" math="0" shadow="0">
      <root>
        <mxCell id="0" />
        <mxCell id="1" parent="0" />
        <mxCell id="Bvc7KSZVlLmQ95Xj1F62-1" value="&lt;span style=&quot;color: rgb(35 , 31 , 32) ; font-family: &amp;#34;arial&amp;#34; , sans-serif&quot;&gt;Поиск и получение информации об экспонатах/картинах.&amp;nbsp;&lt;/span&gt;" style="rounded=0;whiteSpace=wrap;html=1;sketch=0;strokeColor=#457B9D;fillColor=#A8DADC;fontColor=#1D3557;" vertex="1" parent="1">
          <mxGeometry x="40" y="480" width="870" height="40" as="geometry" />
        </mxCell>
        <mxCell id="Bvc7KSZVlLmQ95Xj1F62-3" value="Поиск по сайту по определенным критериям" style="rounded=0;whiteSpace=wrap;html=1;sketch=0;strokeColor=#457B9D;fillColor=#A8DADC;fontColor=#1D3557;" vertex="1" parent="1">
          <mxGeometry x="40" y="160" width="160" height="80" as="geometry" />
        </mxCell>
        <mxCell id="Bvc7KSZVlLmQ95Xj1F62-4" value="Имеющаяся БД, из которой берётся основная информация" style="rounded=0;whiteSpace=wrap;html=1;sketch=0;strokeColor=#457B9D;fillColor=#A8DADC;fontColor=#1D3557;" vertex="1" parent="1">
          <mxGeometry x="720" y="120" width="160" height="80" as="geometry" />
        </mxCell>
        <mxCell id="Bvc7KSZVlLmQ95Xj1F62-5" value="Занесение новых экспонатов и информации о них" style="rounded=0;whiteSpace=wrap;html=1;sketch=0;strokeColor=#457B9D;fillColor=#A8DADC;fontColor=#1D3557;" vertex="1" parent="1">
          <mxGeometry x="720" y="280" width="160" height="80" as="geometry" />
        </mxCell>
        <mxCell id="Bvc7KSZVlLmQ95Xj1F62-21" style="edgeStyle=orthogonalEdgeStyle;curved=0;rounded=1;sketch=0;orthogonalLoop=1;jettySize=auto;html=1;exitX=1;exitY=0.5;exitDx=0;exitDy=0;entryX=0.325;entryY=0.988;entryDx=0;entryDy=0;entryPerimeter=0;strokeColor=#457B9D;fillColor=#A8DADC;fontColor=#1D3557;" edge="1" parent="1" source="Bvc7KSZVlLmQ95Xj1F62-6" target="Bvc7KSZVlLmQ95Xj1F62-18">
          <mxGeometry relative="1" as="geometry" />
        </mxCell>
        <mxCell id="Bvc7KSZVlLmQ95Xj1F62-6" value="Возможность оценить ту или иную запись/публикацию/страницу" style="rounded=0;whiteSpace=wrap;html=1;sketch=0;strokeColor=#457B9D;fillColor=#A8DADC;fontColor=#1D3557;" vertex="1" parent="1">
          <mxGeometry x="240" y="280" width="160" height="80" as="geometry" />
        </mxCell>
        <mxCell id="Bvc7KSZVlLmQ95Xj1F62-13" style="edgeStyle=orthogonalEdgeStyle;curved=0;rounded=1;sketch=0;orthogonalLoop=1;jettySize=auto;html=1;exitX=1;exitY=0;exitDx=0;exitDy=0;entryX=0.5;entryY=1;entryDx=0;entryDy=0;strokeColor=#457B9D;fillColor=#A8DADC;fontColor=#1D3557;" edge="1" parent="1" source="Bvc7KSZVlLmQ95Xj1F62-7" target="Bvc7KSZVlLmQ95Xj1F62-3">
          <mxGeometry relative="1" as="geometry" />
        </mxCell>
        <mxCell id="Bvc7KSZVlLmQ95Xj1F62-14" style="edgeStyle=orthogonalEdgeStyle;curved=0;rounded=1;sketch=0;orthogonalLoop=1;jettySize=auto;html=1;exitX=1;exitY=0.5;exitDx=0;exitDy=0;entryX=0.5;entryY=1;entryDx=0;entryDy=0;strokeColor=#457B9D;fillColor=#A8DADC;fontColor=#1D3557;" edge="1" parent="1" source="Bvc7KSZVlLmQ95Xj1F62-7" target="Bvc7KSZVlLmQ95Xj1F62-6">
          <mxGeometry relative="1" as="geometry" />
        </mxCell>
        <mxCell id="Bvc7KSZVlLmQ95Xj1F62-15" style="edgeStyle=orthogonalEdgeStyle;curved=0;rounded=1;sketch=0;orthogonalLoop=1;jettySize=auto;html=1;exitX=1;exitY=0;exitDx=0;exitDy=0;entryX=0;entryY=0.5;entryDx=0;entryDy=0;strokeColor=#457B9D;fillColor=#A8DADC;fontColor=#1D3557;" edge="1" parent="1" source="Bvc7KSZVlLmQ95Xj1F62-7" target="Bvc7KSZVlLmQ95Xj1F62-9">
          <mxGeometry relative="1" as="geometry">
            <Array as="points">
              <mxPoint x="20" y="374" />
              <mxPoint x="20" y="120" />
            </Array>
          </mxGeometry>
        </mxCell>
        <mxCell id="Bvc7KSZVlLmQ95Xj1F62-7" value="Клиент" style="ellipse;whiteSpace=wrap;html=1;rounded=0;sketch=0;strokeColor=#457B9D;fillColor=#A8DADC;fontColor=#1D3557;" vertex="1" parent="1">
          <mxGeometry x="40" y="370" width="80" height="30" as="geometry" />
        </mxCell>
        <mxCell id="Bvc7KSZVlLmQ95Xj1F62-16" style="edgeStyle=orthogonalEdgeStyle;curved=0;rounded=1;sketch=0;orthogonalLoop=1;jettySize=auto;html=1;exitX=0.5;exitY=1;exitDx=0;exitDy=0;strokeColor=#457B9D;fillColor=#A8DADC;fontColor=#1D3557;entryX=0.5;entryY=0;entryDx=0;entryDy=0;" edge="1" parent="1" source="Bvc7KSZVlLmQ95Xj1F62-8" target="Bvc7KSZVlLmQ95Xj1F62-4">
          <mxGeometry relative="1" as="geometry">
            <mxPoint x="600" y="110" as="targetPoint" />
          </mxGeometry>
        </mxCell>
        <mxCell id="Bvc7KSZVlLmQ95Xj1F62-19" style="edgeStyle=orthogonalEdgeStyle;curved=0;rounded=1;sketch=0;orthogonalLoop=1;jettySize=auto;html=1;exitX=1;exitY=1;exitDx=0;exitDy=0;entryX=0.5;entryY=1;entryDx=0;entryDy=0;strokeColor=#457B9D;fillColor=#A8DADC;fontColor=#1D3557;" edge="1" parent="1" source="Bvc7KSZVlLmQ95Xj1F62-8" target="Bvc7KSZVlLmQ95Xj1F62-5">
          <mxGeometry relative="1" as="geometry" />
        </mxCell>
        <mxCell id="Bvc7KSZVlLmQ95Xj1F62-8" value="Управляющий сайтом&amp;nbsp;" style="ellipse;whiteSpace=wrap;html=1;rounded=0;sketch=0;strokeColor=#457B9D;fillColor=#A8DADC;fontColor=#1D3557;" vertex="1" parent="1">
          <mxGeometry x="810" y="40" width="120" height="30" as="geometry" />
        </mxCell>
        <mxCell id="Bvc7KSZVlLmQ95Xj1F62-20" style="edgeStyle=orthogonalEdgeStyle;curved=0;rounded=1;sketch=0;orthogonalLoop=1;jettySize=auto;html=1;exitX=1;exitY=0.5;exitDx=0;exitDy=0;entryX=0;entryY=0.5;entryDx=0;entryDy=0;strokeColor=#457B9D;fillColor=#A8DADC;fontColor=#1D3557;" edge="1" parent="1" source="Bvc7KSZVlLmQ95Xj1F62-9" target="Bvc7KSZVlLmQ95Xj1F62-18">
          <mxGeometry relative="1" as="geometry" />
        </mxCell>
        <mxCell id="Bvc7KSZVlLmQ95Xj1F62-9" value="Возможность оставлять отзыв/присылать feedback модераторам" style="whiteSpace=wrap;html=1;rounded=0;sketch=0;strokeColor=#457B9D;fillColor=#A8DADC;fontColor=#1D3557;" vertex="1" parent="1">
          <mxGeometry x="240" y="80" width="160" height="80" as="geometry" />
        </mxCell>
        <mxCell id="Bvc7KSZVlLmQ95Xj1F62-22" style="edgeStyle=orthogonalEdgeStyle;curved=0;rounded=1;sketch=0;orthogonalLoop=1;jettySize=auto;html=1;exitX=0.5;exitY=0;exitDx=0;exitDy=0;entryX=0;entryY=0.5;entryDx=0;entryDy=0;strokeColor=#457B9D;fillColor=#A8DADC;fontColor=#1D3557;" edge="1" parent="1" source="Bvc7KSZVlLmQ95Xj1F62-18" target="Bvc7KSZVlLmQ95Xj1F62-8">
          <mxGeometry relative="1" as="geometry" />
        </mxCell>
        <mxCell id="Bvc7KSZVlLmQ95Xj1F62-31" style="edgeStyle=orthogonalEdgeStyle;curved=0;rounded=1;sketch=0;orthogonalLoop=1;jettySize=auto;html=1;exitX=0.75;exitY=1;exitDx=0;exitDy=0;strokeColor=#457B9D;fillColor=#A8DADC;fontColor=#1D3557;" edge="1" parent="1" source="Bvc7KSZVlLmQ95Xj1F62-18">
          <mxGeometry relative="1" as="geometry">
            <mxPoint x="940" y="430" as="targetPoint" />
            <Array as="points">
              <mxPoint x="570" y="430" />
            </Array>
          </mxGeometry>
        </mxCell>
        <mxCell id="Bvc7KSZVlLmQ95Xj1F62-18" value="Вносить правки" style="rounded=0;whiteSpace=wrap;html=1;sketch=0;strokeColor=#457B9D;fillColor=#A8DADC;fontColor=#1D3557;" vertex="1" parent="1">
          <mxGeometry x="480" y="160" width="120" height="80" as="geometry" />
        </mxCell>
        <mxCell id="Bvc7KSZVlLmQ95Xj1F62-23" value="Находит&lt;br&gt;интересующую&amp;nbsp;&lt;br&gt;информацию&lt;br&gt;" style="text;html=1;align=center;verticalAlign=middle;resizable=0;points=[];autosize=1;fontColor=#1D3557;" vertex="1" parent="1">
          <mxGeometry x="120" y="260" width="100" height="50" as="geometry" />
        </mxCell>
        <mxCell id="Bvc7KSZVlLmQ95Xj1F62-24" value="Дает оценку&amp;nbsp;&lt;br&gt;для будущего&lt;br&gt;развития&lt;br&gt;статей" style="text;html=1;align=center;verticalAlign=middle;resizable=0;points=[];autosize=1;fontColor=#1D3557;" vertex="1" parent="1">
          <mxGeometry x="160" y="390" width="90" height="60" as="geometry" />
        </mxCell>
        <mxCell id="Bvc7KSZVlLmQ95Xj1F62-25" value="Дает обратную связь&lt;br&gt;для улучшения сервиса" style="text;html=1;align=center;verticalAlign=middle;resizable=0;points=[];autosize=1;fontColor=#1D3557;" vertex="1" parent="1">
          <mxGeometry x="45" y="80" width="150" height="30" as="geometry" />
        </mxCell>
        <mxCell id="Bvc7KSZVlLmQ95Xj1F62-26" value="На основе этого&amp;nbsp;&lt;br&gt;составляется план по&amp;nbsp;&lt;br&gt;внесению изменений" style="text;html=1;align=center;verticalAlign=middle;resizable=0;points=[];autosize=1;fontColor=#1D3557;" vertex="1" parent="1">
          <mxGeometry x="300" y="175" width="140" height="50" as="geometry" />
        </mxCell>
        <mxCell id="Bvc7KSZVlLmQ95Xj1F62-27" value="На основе этого&amp;nbsp;&lt;br&gt;составляется план по&amp;nbsp;&lt;br&gt;внесению изменений" style="text;html=1;align=center;verticalAlign=middle;resizable=0;points=[];autosize=1;fontColor=#1D3557;" vertex="1" parent="1">
          <mxGeometry x="400" y="320" width="140" height="50" as="geometry" />
        </mxCell>
        <mxCell id="Bvc7KSZVlLmQ95Xj1F62-29" value="Предоставление информации&lt;br&gt;при поиске пользователем" style="text;html=1;align=center;verticalAlign=middle;resizable=0;points=[];autosize=1;fontColor=#1D3557;" vertex="1" parent="1">
          <mxGeometry x="600" y="80" width="190" height="30" as="geometry" />
        </mxCell>
        <mxCell id="Bvc7KSZVlLmQ95Xj1F62-30" value="Добавление новых&amp;nbsp;&lt;br&gt;записей" style="text;html=1;align=center;verticalAlign=middle;resizable=0;points=[];autosize=1;fontColor=#1D3557;" vertex="1" parent="1">
          <mxGeometry x="780" y="225" width="130" height="30" as="geometry" />
        </mxCell>
        <mxCell id="Bvc7KSZVlLmQ95Xj1F62-32" value="Предоставление качественной, интересной и полезной информации" style="text;html=1;align=center;verticalAlign=middle;resizable=0;points=[];autosize=1;fontColor=#1D3557;" vertex="1" parent="1">
          <mxGeometry x="520" y="440" width="410" height="20" as="geometry" />
        </mxCell>
      </root>
    </mxGraphModel>
  </diagram>
</mxfile>
